# xmcd
#
# Track frame offsets:
#	150
#	12727
#	26606
#	44849
#	61015
#	80494
#	95049
#	113262
#	130376
#	145599
#	166404
#	189625
#	205953
#	216935
#	241300
#	269587
#	296577
#	320207
#
# Disc length: 4568 seconds
#
# Revision: 0
# Processed by: cddbd v1.5PL3 Copyright (c) Steve Scherf et al.
# Submitted via: EasyCDDAExtractor 4.6.9.1
#
DISCID=1611d612
DTITLE=Elton John - To Be Continued - Disk 1
DYEAR=1990
DGENRE=
TTITLE0=Come Back Baby (Bluesology)
TTITLE1=Lady Samantha
TTITLE2=It's Me That You Need
TTITLE3=Your Song (Demo Version)
TTITLE4=Rock and Roll Madonna
TTITLE5=Bad Side of the Moon
TTITLE6=Your Song
TTITLE7=Take Me to the Pilot
TTITLE8=Border Song
TTITLE9=Sixty Years On
TTITLE10=Country Comfort
TTITLE11=Gray Seal
TTITLE12=Friends
TTITLE13=Levon
TTITLE14=Tiny Dancer
TTITLE15=Madman Across The Water
TTITLE16=Honky Cat
TTITLE17=Mona Lisas And Mad Hatters
EXTD=
EXTT0=
EXTT1=
EXTT2=
EXTT3=
EXTT4=
EXTT5=
EXTT6=
EXTT7=
EXTT8=
EXTT9=
EXTT10=
EXTT11=
EXTT12=
EXTT13=
EXTT14=
EXTT15=
EXTT16=
EXTT17=
PLAYORDER=
